<svg xmlns="http://www.w3.org/2000/svg" xmlns:xlink="http://www.w3.org/1999/xlink" viewBox="0,0,256,256" width="24px" height="24px" fill-rule="nonzero"><g fill-opacity="0.81176" fill="#15a7b1" fill-rule="nonzero" stroke="none" stroke-width="1" stroke-linecap="butt" stroke-linejoin="miter" stroke-miterlimit="10" stroke-dasharray="" stroke-dashoffset="0" font-family="none" font-weight="none" font-size="none" text-anchor="none" style="mix-blend-mode: normal"><g transform="scale(10.66667,10.66667)"><path d="M12,2c-5.51397,0 -10,4.48604 -10,10c0,5.51396 4.48603,10 10,10c5.51397,0 10,-4.48604 10,-10c0,-5.51396 -4.48603,-10 -10,-10zM12,7c0.552,0 1,0.448 1,1c0,0.552 -0.448,1 -1,1c-0.552,0 -1,-0.448 -1,-1c0,-0.552 0.448,-1 1,-1zM12,10.99609c0.433,0 0.78516,0.35216 0.78516,0.78516v5.45703c0,0.434 -0.35216,0.78516 -0.78516,0.78516c-0.433,0 -0.78516,-0.35216 -0.78516,-0.78516v-5.45703c0,-0.434 0.35216,-0.78516 0.78516,-0.78516z"></path></g></g></svg>